<?xml version="1.0" encoding="UTF-8"?>
<!-- Generated by Pixelmator Pro 3.6.17 -->
<svg width="230" height="60" viewBox="0 0 230 60" xmlns="http://www.w3.org/2000/svg">
    <path id="path1" fill="#000000" stroke="none" d="M 25.729996 38.840012 L 23.850006 40.389999 C 23.630005 40.160004 22.850006 39.290009 21.509995 37.779999 C 20.169998 36.270004 18.099998 33.919998 15.300003 30.710007 L 15.300003 30.570007 C 15.699997 30.470001 16.199997 30.25 16.830002 29.919998 C 17.459999 29.580002 17.989998 29.220001 18.43 28.830002 C 18.800003 28.490005 19.119995 28.070007 19.399994 27.570007 C 19.679993 27.070007 19.809998 26.400009 19.809998 25.550003 C 19.809998 24.779999 19.610001 24.110001 19.199997 23.559998 C 18.790001 23 18.230003 22.590012 17.519997 22.330002 C 16.940002 22.110001 16.330002 21.980011 15.690002 21.930008 C 15.050003 21.889999 14.459999 21.860001 13.910004 21.860001 C 13.550003 21.860001 13.269997 21.860001 13.080002 21.860001 C 12.889999 21.860001 12.75 21.860001 12.660004 21.860001 C 12.639999 23.770004 12.629997 25.450012 12.620003 26.900009 C 12.620003 28.350006 12.620003 29.380005 12.620003 29.980011 C 12.620003 31.350006 12.620003 33.220001 12.639999 35.580002 C 12.650002 37.940002 12.669998 39.419998 12.68 40.020004 L 10.199997 40.020004 C 10.199997 39.419998 10.220001 38.25 10.239998 36.520004 C 10.260002 34.790009 10.269997 32.639999 10.269997 30.059998 L 10.269997 27.279999 C 10.269997 25.930008 10.25 23.460007 10.190002 19.880005 C 10.290001 19.880005 10.790001 19.880005 11.690002 19.850006 C 12.589996 19.830002 13.419998 19.820007 14.18 19.820007 C 15.050003 19.820007 15.900002 19.87001 16.720001 19.970001 C 17.540001 20.070007 18.339996 20.290009 19.119995 20.62001 C 20.110001 21.040009 20.899994 21.660004 21.479996 22.480011 C 22.059998 23.300003 22.350006 24.26001 22.350006 25.360001 C 22.350006 26.779999 21.910004 27.970001 21.039993 28.910004 C 20.160004 29.860001 19.339996 30.559998 18.559998 31.020004 L 18.559998 31.100006 C 19.929993 32.710007 21.440002 34.360001 23.080002 36.070007 C 24.720001 37.779999 25.600006 38.690002 25.720001 38.820007 Z"/>
    <path id="path2" fill="#000000" stroke="none" d="M 42.820007 40.01001 C 42.729996 40.01001 42.059998 40.01001 40.820007 40 C 39.580002 39.990005 38.039993 39.980011 36.199997 39.980011 C 34.929993 39.980011 33.759995 39.980011 32.699997 40 C 31.639999 40 30.75 40.01001 30.020004 40.01001 C 30.039993 39.430008 30.059998 38.169998 30.070007 36.240005 C 30.089996 34.309998 30.089996 32.309998 30.089996 30.240005 C 30.089996 29.110001 30.089996 27.610001 30.070007 25.740005 C 30.070007 23.87001 30.039993 21.950012 30.009995 19.950012 C 30.720001 19.950012 31.610001 19.950012 32.679993 19.970001 C 33.75 19.970001 34.850006 19.980011 35.979996 19.980011 C 37.889999 19.980011 39.449997 19.980011 40.660004 19.970001 C 41.860001 19.960007 42.509995 19.950012 42.610001 19.950012 L 42.610001 22.040009 C 42.509995 22.040009 41.880005 22.040009 40.720001 22.020004 C 39.559998 22 38.119995 22 36.399994 22 C 35.649994 22 34.910004 22 34.190002 22 C 33.470001 22 32.899994 22 32.479996 22 C 32.479996 23.130005 32.479996 24.26001 32.449997 25.389999 C 32.429993 26.520004 32.419998 27.580002 32.419998 28.590012 C 32.869995 28.590012 33.410004 28.590012 34.020004 28.590012 C 34.630005 28.590012 35.190002 28.590012 35.669998 28.590012 C 37.429993 28.590012 39.009995 28.590012 40.399994 28.570007 C 41.789993 28.550003 42.529999 28.550003 42.619995 28.550003 L 42.619995 30.630005 C 42.539993 30.630005 41.710007 30.630005 40.139999 30.610001 C 38.570007 30.590012 37.130005 30.590012 35.830002 30.590012 C 35.350006 30.590012 34.770004 30.590012 34.110001 30.590012 C 33.440002 30.590012 32.880005 30.590012 32.429993 30.590012 C 32.429993 32.480011 32.429993 33.990005 32.449997 35.100006 C 32.449997 36.210007 32.470001 37.150009 32.479996 37.900009 C 33.070007 37.910004 33.789993 37.919998 34.630005 37.919998 C 35.470001 37.919998 36.380005 37.919998 37.350006 37.919998 C 38.839996 37.919998 40.100006 37.919998 41.119995 37.900009 C 42.139999 37.900009 42.710007 37.880005 42.830002 37.880005 L 42.830002 39.970001 Z"/>
    <path id="path3" fill="#000000" stroke="none" d="M 81.990005 40.01001 C 81.869995 40.01001 81.240005 40.01001 80.089996 40 C 78.940002 39.990005 77.479996 39.980011 75.690002 39.980011 C 74.520004 39.980011 73.399994 39.980011 72.339996 40 C 71.279999 40 70.389999 40.01001 69.660004 40.01001 C 69.679993 38.290009 69.699997 36.540009 69.710007 34.770004 C 69.729996 33 69.729996 31.26001 69.729996 29.559998 C 69.729996 26.710007 69.720001 24.540009 69.699997 23.050003 C 69.679993 21.559998 69.660004 20.51001 69.660004 19.910004 L 72.139999 19.910004 C 72.119995 21.200012 72.100006 22.700012 72.100006 24.389999 C 72.089996 26.080002 72.080002 27.470001 72.080002 28.550003 C 72.080002 31.180008 72.080002 33.380005 72.100006 35.150009 C 72.100006 36.910004 72.119995 37.840012 72.119995 37.940002 C 72.529999 37.940002 73.029999 37.940002 73.610001 37.940002 C 74.190002 37.940002 74.720001 37.940002 75.190002 37.940002 C 76.979996 37.940002 78.550003 37.940002 79.869995 37.919998 C 81.190002 37.900009 81.910004 37.900009 82 37.900009 L 82 40.01001 Z"/>
    <path id="path4" fill="#000000" stroke="none" d="M 111.610001 40.040009 L 109.130005 40.040009 C 109.139999 39.440002 109.149994 38.330002 109.169998 36.710007 C 109.190002 35.090012 109.190002 33.070007 109.190002 30.660004 C 109.039993 30.660004 108.149994 30.660004 106.509995 30.660004 C 104.880005 30.660004 103.649994 30.660004 102.830002 30.660004 C 101.839996 30.660004 100.649994 30.660004 99.259995 30.660004 C 97.869995 30.660004 97.119995 30.660004 97 30.660004 C 97 33.450012 97 35.559998 97.020004 36.990005 C 97.029999 38.419998 97.050003 39.440002 97.059998 40.040009 L 94.580002 40.040009 C 94.580002 39.440002 94.600006 38.37001 94.619995 36.840012 C 94.639999 35.309998 94.649994 32.720001 94.649994 29.070007 C 94.649994 27.970001 94.649994 26.62001 94.630005 25.040009 C 94.619995 23.460007 94.600006 21.75 94.580002 19.910004 L 97.059998 19.910004 C 97.059998 21.430008 97.059998 22.930008 97.029999 24.400009 C 97.009995 25.87001 97 27.26001 97 28.590012 C 97.119995 28.590012 97.770004 28.590012 98.960007 28.590012 C 100.149994 28.590012 101.440002 28.590012 102.850006 28.590012 C 103.929993 28.590012 105.240005 28.590012 106.759995 28.590012 C 108.279999 28.590012 109.100006 28.590012 109.199997 28.590012 C 109.199997 27.270004 109.199997 25.87001 109.169998 24.410004 C 109.149994 22.950012 109.139999 21.450012 109.139999 19.910004 L 111.619995 19.910004 C 111.600006 21.419998 111.580002 23.169998 111.570007 25.160004 C 111.550003 27.150009 111.550003 28.76001 111.550003 30.020004 C 111.550003 32.970001 111.559998 35.230011 111.580002 36.790009 C 111.600006 38.350006 111.619995 39.440002 111.619995 40.050003 Z"/>
    <path id="path5" fill="#000000" stroke="none" d="M 142.139999 40.040009 L 139.660004 40.040009 C 139.679993 39.440002 139.699997 38.12001 139.710007 36.070007 C 139.729996 34.020004 139.729996 31.559998 139.729996 28.690002 C 139.729996 27.520004 139.729996 26.160004 139.710007 24.610001 C 139.699997 23.070007 139.679993 21.5 139.660004 19.900009 L 142.139999 19.900009 C 142.119995 21.430008 142.100006 23.169998 142.100006 25.100006 C 142.089996 27.029999 142.080002 28.700012 142.080002 30.110001 C 142.080002 33 142.080002 35.220001 142.100006 36.790009 C 142.110001 38.350006 142.130005 39.440002 142.139999 40.040009 Z M 155.179993 38.660004 L 153.450012 40.320007 C 151.049988 37.990005 148.73999 35.820007 146.520004 33.809998 C 144.300003 31.800003 143.020004 30.639999 142.699997 30.350006 L 142.699997 30.290009 C 143.320007 29.669998 144.649994 28.300003 146.690002 26.190002 C 148.730011 24.080002 150.769989 21.910004 152.799988 19.690002 L 154.48999 21.200012 C 152.76001 22.850006 150.98999 24.610001 149.179993 26.480011 C 147.359985 28.350006 146.220001 29.520004 145.75 30 L 145.75 30.040009 C 145.979996 30.26001 146.970001 31.180008 148.720001 32.779999 C 150.470001 34.380005 152.619995 36.350006 155.170013 38.650009 Z"/>
    <path id="path6" fill="#000000" stroke="none" d="M 175.799988 19.910004 C 175.799988 21.840012 175.790009 23.430008 175.769989 24.680008 C 175.75 25.940002 175.73999 27.029999 175.73999 27.970001 C 175.73999 29.110001 175.73999 30.090012 175.73999 30.889999 C 175.73999 31.700012 175.73999 32.400009 175.73999 32.990005 C 175.73999 34.150009 175.570007 35.180008 175.220001 36.059998 C 174.869995 36.950012 174.350006 37.720001 173.649994 38.380005 C 172.950012 39.040009 172.089996 39.559998 171.059998 39.940002 C 170.029999 40.320007 168.859985 40.5 167.51001 40.5 C 166.160004 40.5 164.980011 40.309998 163.959991 39.940002 C 162.940002 39.570007 162.070007 39.050003 161.359985 38.380005 C 160.660004 37.720001 160.130005 36.940002 159.790009 36.059998 C 159.440002 35.169998 159.269989 34.150009 159.269989 32.990005 C 159.269989 32.400009 159.269989 31.700012 159.269989 30.889999 C 159.269989 30.080002 159.269989 29.110001 159.269989 27.970001 C 159.269989 27.040009 159.269989 25.940002 159.23999 24.680008 C 159.220001 23.419998 159.209991 21.830002 159.209991 19.910004 L 161.690002 19.910004 C 161.690002 20.160004 161.670013 21.020004 161.649994 22.470001 C 161.630005 23.930008 161.630005 25.850006 161.630005 28.220001 C 161.630005 28.940002 161.630005 29.690002 161.630005 30.460007 C 161.630005 31.230011 161.630005 32.020004 161.630005 32.840012 C 161.630005 34.669998 162.160004 36.070007 163.209991 37.01001 C 164.26001 37.960007 165.690002 38.430008 167.480011 38.430008 C 169.420013 38.430008 170.880005 37.980011 171.850006 37.080002 C 172.820007 36.180008 173.309998 34.76001 173.309998 32.840012 C 173.309998 32.029999 173.309998 31.240005 173.309998 30.460007 C 173.309998 29.690002 173.309998 28.940002 173.309998 28.220001 C 173.309998 25.840012 173.299988 23.900009 173.279999 22.389999 C 173.26001 20.880005 173.25 20.050003 173.25 19.910004 L 175.730011 19.910004 Z"/>
    <path id="path7" fill="#000000" stroke="none" d="M 197.230011 34.12001 C 197.230011 35.12001 196.970001 36.020004 196.459991 36.830002 C 195.940002 37.630005 195.200012 38.290009 194.209991 38.800003 C 193.339996 39.25 192.380005 39.580002 191.339996 39.779999 C 190.299988 39.990005 189.109985 40.090012 187.769989 40.090012 C 186.779999 40.090012 185.76001 40.070007 184.709991 40.040009 C 183.660004 40.01001 183.079987 39.980011 182.959991 39.970001 C 182.98999 38.050003 183.01001 36.230011 183.019989 34.520004 C 183.029999 32.809998 183.040009 31.180008 183.040009 29.630005 C 183.040009 26.680008 183.029999 24.350006 183 22.630005 C 182.970001 20.910004 182.959991 20.020004 182.959991 19.950012 C 183.100006 19.950012 183.649994 19.910004 184.619995 19.87001 C 185.589996 19.830002 186.529999 19.809998 187.440002 19.809998 C 188.470001 19.809998 189.420013 19.880005 190.290009 20.01001 C 191.160004 20.150009 191.899994 20.330002 192.5 20.570007 C 193.410004 20.930008 194.130005 21.450012 194.649994 22.130005 C 195.170013 22.809998 195.429993 23.639999 195.429993 24.62001 C 195.429993 25.650009 195.100006 26.570007 194.450012 27.360001 C 193.799988 28.160004 193.049988 28.700012 192.209991 28.990005 L 192.209991 29.139999 C 192.899994 29.200012 193.570007 29.360001 194.220001 29.630005 C 194.869995 29.900009 195.440002 30.270004 195.929993 30.76001 C 196.359985 31.190002 196.679993 31.669998 196.899994 32.190002 C 197.119995 32.710007 197.230011 33.350006 197.230011 34.110001 Z M 194.670013 34.190002 C 194.670013 33.680008 194.579987 33.220001 194.399994 32.809998 C 194.220001 32.400009 193.950012 32.020004 193.589996 31.639999 C 193.25 31.300003 192.779999 31.020004 192.179993 30.809998 C 191.579987 30.600006 190.929993 30.490005 190.230011 30.490005 C 189.670013 30.490005 189.220001 30.490005 188.869995 30.51001 C 188.519989 30.520004 188.299988 30.529999 188.190002 30.529999 L 187.950012 28.730011 C 188.690002 28.710007 189.350006 28.62001 189.910004 28.470001 C 190.480011 28.309998 190.980011 28.080002 191.420013 27.770004 C 191.839996 27.470001 192.190002 27.090012 192.459991 26.62001 C 192.730011 26.150009 192.869995 25.630005 192.869995 25.050003 C 192.869995 24.440002 192.720001 23.910004 192.420013 23.460007 C 192.119995 23.01001 191.709991 22.660004 191.190002 22.400009 C 190.75 22.190002 190.209991 22.029999 189.570007 21.930008 C 188.929993 21.830002 188.23999 21.770004 187.51001 21.770004 C 187.040009 21.770004 186.609985 21.770004 186.209991 21.790009 C 185.809998 21.809998 185.559998 21.809998 185.450012 21.809998 C 185.420013 23.270004 185.399994 24.830002 185.399994 26.470001 C 185.399994 28.110001 185.399994 29.309998 185.399994 30.050003 C 185.399994 31.770004 185.399994 33.51001 185.420013 35.240005 C 185.440002 36.980011 185.440002 37.910004 185.440002 38.029999 C 185.640015 38.029999 185.910004 38.050003 186.23999 38.070007 C 186.579987 38.090012 186.899994 38.090012 187.209991 38.090012 C 188.359985 38.090012 189.429993 38.029999 190.420013 37.910004 C 191.410004 37.790009 192.23999 37.540009 192.920013 37.160004 C 193.480011 36.850006 193.910004 36.440002 194.220001 35.940002 C 194.529999 35.440002 194.679993 34.850006 194.679993 34.180008 Z"/>
    <path id="path8" fill="#000000" stroke="none" d="M 62.649994 32.669998 C 60.720001 28.460007 58.75 24.110001 56.740005 19.62001 L 54.789993 19.62001 C 52.759995 24.110001 50.789993 28.389999 48.899994 32.460007 C 47.009995 36.529999 45.929993 38.830002 45.669998 39.350006 L 47.630005 40.410004 L 54.880005 24.350006 C 54.880005 24.350006 55.330002 23.360001 55.529999 22.919998 L 55.589996 22.919998 C 56.240005 24.360001 62.350006 38.090012 62.350006 38.090012 L 62.320007 38.090012 C 62.320007 38.090012 62.350006 38.160004 62.360001 38.190002 C 62.960007 39.570007 63.279999 40.320007 63.320007 40.430008 L 65.660004 39.220001 C 65.580002 39.050003 64.570007 36.860001 62.639999 32.650009 Z"/>
    <path id="path9" fill="#000000" stroke="none" d="M 132.509995 32.669998 C 130.580002 28.460007 128.610001 24.110001 126.600006 19.62001 L 124.649994 19.62001 C 122.619995 24.110001 120.649994 28.389999 118.759995 32.460007 C 116.869995 36.529999 115.789993 38.830002 115.529999 39.350006 L 117.490005 40.410004 L 124.740005 24.350006 L 124.740005 24.350006 C 124.970001 23.840012 125.190002 23.360001 125.389999 22.919998 L 125.449997 22.919998 C 126.100006 24.360001 126.720001 25.76001 127.309998 27.090012 L 132.210007 38.090012 L 132.179993 38.090012 C 132.179993 38.090012 132.210007 38.160004 132.220001 38.190002 C 132.820007 39.570007 133.139999 40.320007 133.179993 40.430008 L 135.520004 39.220001 C 135.440002 39.050003 134.429993 36.860001 132.5 32.650009 Z"/>
    <path id="path10" fill="#000000" stroke="none" d="M 216.649994 32.669998 C 214.720001 28.460007 212.75 24.110001 210.73999 19.62001 L 208.790009 19.62001 C 206.76001 24.110001 204.790009 28.389999 202.899994 32.460007 C 201.01001 36.529999 199.929993 38.830002 199.670013 39.350006 L 201.630005 40.410004 L 208.880005 24.350006 L 208.880005 24.350006 C 209.109985 23.840012 209.329987 23.360001 209.529999 22.919998 L 209.589996 22.919998 C 210.23999 24.360001 210.859985 25.76001 211.450012 27.090012 L 216.350006 38.090012 L 216.320007 38.090012 C 216.320007 38.090012 216.350006 38.160004 216.359985 38.190002 C 216.959991 39.570007 217.279999 40.320007 217.320007 40.430008 L 219.660004 39.220001 C 219.579987 39.050003 218.570007 36.860001 216.640015 32.650009 Z"/>
</svg>
